<svg width="40" height="40" viewBox="0 0 40 40" fill="none" xmlns="http://www.w3.org/2000/svg">
<path d="M37.0012 9.26747C31.0271 -0.00379186 18.793 -2.75083 9.33158 3.00079C0.0988479 8.7524 -2.87392 21.2858 3.1002 30.5284L3.58613 31.2724L1.58523 38.7696L9.07432 36.7665L9.81751 37.253C13.0475 38.9985 16.5634 40 20.0507 40C23.7952 40 27.5398 38.9985 30.7698 36.9954C40.0025 30.9863 42.7466 18.7104 37.0012 9.21024V9.26747ZM31.7703 28.554C30.7698 30.042 29.5121 31.0435 27.7685 31.301C26.768 31.301 25.5103 31.7875 20.5366 29.8131C16.3061 27.81 12.7903 24.5479 10.3034 20.7993C8.81706 19.0538 8.04528 16.7932 7.81661 14.5326C7.81661 12.5296 8.5598 10.7841 9.81751 9.52501C10.3034 9.03855 10.818 8.78102 11.3039 8.78102H12.5616C13.0475 8.78102 13.5621 8.78102 13.8193 9.78254C14.3052 11.0416 15.563 14.0462 15.563 14.3037C15.8202 14.5613 15.7059 16.4785 14.5625 17.5658C13.9336 18.2812 13.8193 18.3098 14.0766 18.8249C15.077 20.3129 16.3347 21.8295 17.5639 23.0885C19.0502 24.3476 20.5652 25.3491 22.3088 26.0931C22.7948 26.3506 23.3093 26.3506 23.5666 25.8356C23.8238 25.3491 25.0529 24.0901 25.5675 23.575C26.0534 23.0885 26.3107 23.0885 26.8252 23.3174L30.827 25.3205C31.3129 25.578 31.8274 25.807 32.0847 26.0645C32.3419 26.8085 32.3419 27.81 31.8274 28.554H31.7703Z" fill="#CCCCCC"/>
</svg>
