<svg width="92" height="87" viewBox="0 0 92 87" fill="none" xmlns="http://www.w3.org/2000/svg">
<path d="M78.2 47.85V60.9L64.4 47.85H36.8C34.36 47.85 32.02 46.9334 30.2946 45.3018C28.5693 43.6703 27.6 41.4574 27.6 39.15V8.7C27.6 3.915 31.74 0 36.8 0H82.8C85.24 0 87.58 0.916605 89.3054 2.54817C91.0307 4.17974 92 6.39262 92 8.7V39.15C92 41.4574 91.0307 43.6703 89.3054 45.3018C87.58 46.9334 85.24 47.85 82.8 47.85H78.2ZM64.4 56.55V65.25C64.4 67.5574 63.4307 69.7703 61.7054 71.4018C59.98 73.0334 57.64 73.95 55.2 73.95H27.6L13.8 87V73.95H9.2C6.76001 73.95 4.41995 73.0334 2.69462 71.4018C0.969283 69.7703 0 67.5574 0 65.25V34.8C0 30.015 4.14 26.1 9.2 26.1H18.4V39.15C18.4 43.7648 20.3386 48.1905 23.7892 51.4537C27.2399 54.7168 31.92 56.55 36.8 56.55H64.4Z" fill="#5D975D"/>
</svg>
