<svg width="45" height="40" viewBox="0 0 45 40" fill="none" xmlns="http://www.w3.org/2000/svg">
<path d="M14.5317 20C16.1464 20 17.447 19.0233 17.8955 18.5349L18.0452 18.3092C18.3926 17.7855 18.6742 17.221 18.8837 16.6285V16.6285L19.0931 15.8678L19.6438 13.721L19.4933 14.4027C19.8205 12.62 20.082 10.4132 20.5866 10" stroke="#CCCCCC" stroke-width="2.5"/>
<path d="M14.5317 20C16.1464 20 17.447 20.9767 17.8955 21.4651L18.0452 21.6908C18.3926 22.2145 18.6742 22.779 18.8837 23.3715V23.3715L19.0931 24.1322L19.6438 26.279L19.4933 25.5973C19.8205 27.38 20.082 29.5868 20.5866 30" stroke="#CCCCCC" stroke-width="2.5"/>
<path d="M14.4457 31.9664L12.4565 32.1363V8.28923L14.4457 8.45912V31.9664Z" fill="#CCCCCC" stroke="#CCCCCC"/>
<path d="M20.7975 37.2457L8.26587 38.8627V19.7872V1.08971L20.7975 2.16767V19.375V37.2457Z" stroke="#CCCCCC" stroke-width="2"/>
<mask id="path-5-inside-1_51_18" fill="white">
<path d="M0 0H7.26582V40H0V0Z"/>
</mask>
<path d="M0 0V-2H-2V0H0ZM0 40H-2V42H0V40ZM0 2H7.26582V-2H0V2ZM7.26582 38H0V42H7.26582V38ZM2 40V0H-2V40H2Z" fill="#CCCCCC" mask="url(#path-5-inside-1_51_18)"/>
<ellipse cx="11.9566" cy="34.8937" rx="0.996371" ry="0.851064" fill="#CCCCCC"/>
<mask id="path-8-inside-2_51_18" fill="white">
<ellipse cx="11.9566" cy="5.10643" rx="0.996371" ry="0.851064"/>
</mask>
<ellipse cx="11.9566" cy="5.10643" rx="0.996371" ry="0.851064" fill="#CCCCCC"/>
<path d="M11.9529 5.10644C11.9529 5.0629 11.9638 5.02358 11.9785 4.99395C11.9924 4.96584 12.0068 4.95202 12.0116 4.94785C12.0196 4.94102 12.0033 4.9575 11.9566 4.9575V6.9575C12.9055 6.9575 13.9529 6.2708 13.9529 5.10644H11.9529ZM11.9566 4.9575C11.9099 4.9575 11.8935 4.94102 11.9015 4.94785C11.9064 4.95202 11.9207 4.96584 11.9347 4.99395C11.9493 5.02358 11.9602 5.0629 11.9602 5.10644H9.96021C9.96021 6.2708 11.0077 6.9575 11.9566 6.9575V4.9575ZM11.9602 5.10644C11.9602 5.14997 11.9493 5.18929 11.9347 5.21892C11.9207 5.24703 11.9064 5.26085 11.9015 5.26502C11.8935 5.27185 11.9099 5.25537 11.9566 5.25537V3.25537C11.0077 3.25537 9.96021 3.94207 9.96021 5.10644H11.9602ZM11.9566 5.25537C12.0033 5.25537 12.0196 5.27185 12.0116 5.26502C12.0068 5.26085 11.9924 5.24703 11.9785 5.21892C11.9638 5.18929 11.9529 5.14997 11.9529 5.10644H13.9529C13.9529 3.94207 12.9055 3.25537 11.9566 3.25537V5.25537Z" fill="#CCCCCC" mask="url(#path-8-inside-2_51_18)"/>
<path d="M43.9999 36.5726L27.0688 38.8561V19.7872V1.14392L43.9999 3.42738V19.3617V36.5726Z" stroke="#CCCCCC" stroke-width="2"/>
<mask id="path-11-inside-3_51_18" fill="white">
<path d="M19.0942 0H26.0688V40H19.0942V0Z"/>
</mask>
<path d="M19.0942 0V-2H17.0942V0H19.0942ZM19.0942 40H17.0942V42H19.0942V40ZM19.0942 2H26.0688V-2H19.0942V2ZM26.0688 38H19.0942V42H26.0688V38ZM21.0942 40V0H17.0942V40H21.0942Z" fill="#CCCCCC" mask="url(#path-11-inside-3_51_18)"/>
<ellipse cx="31.0506" cy="5.10643" rx="0.996371" ry="0.851064" fill="#CCCCCC"/>
<ellipse cx="40.0181" cy="6.38299" rx="0.996371" ry="0.851064" fill="#CCCCCC"/>
<ellipse cx="40.0181" cy="33.6171" rx="0.996371" ry="0.851064" fill="#CCCCCC"/>
<ellipse cx="31.0506" cy="34.8937" rx="0.996371" ry="0.851064" fill="#CCCCCC"/>
</svg>
